<svg fill="none" viewBox="100 440 470 490" xmlns:xlink="http://www.w3.org/1999/xlink" xmlns="http://www.w3.org/2000/svg"><g transform="matrix(1,0,0,1,198.952,743.017)" id="i0"><g visibility="hidden" id="i1"><animate repeatCount="indefinite" begin="0s" calcMode="discrete" dur="7s" values="hidden; visible; visible" keyTimes="0; 0.071; 1" attributeName="visibility" /><g transform="translate(162.859,110.984)"><g transform="scale(0.856,0.364)"><animateTransform repeatCount="indefinite" type="scale" attributeName="transform" dur="7s" begin="0s" calcMode="spline" values="0.856 0.364; 0.856 0.364; 0.831 0.367; 0.856 0.364; 0.831 0.367; 0.856 0.364; 0.831 0.367; 0.856 0.364; 0.831 0.367; 0.856 0.364; 0.831 0.367; 0.856 0.364; 0.79 0.357; 0.856 0.364; 0.831 0.367; 0.856 0.364; 0.753 0.371; 0.831 0.367; 0.856 0.364" keyTimes="0; 0.071429; 0.138096; 0.204762; 0.271429; 0.32381; 0.390477; 0.447619; 0.514286; 0.571429; 0.638096; 0.690477; 0.757143; 0.809524; 0.876191; 0.928572; 0.985715; 0.995239; 1" keySplines="0 0 1 1; 0 0 1 1; 0 0 1 1; 0 0 1 1; 0 0 1 1; 0 0 1 1; 0 0 1 1; 0 0 1 1; 0 0 1 1; 0 0 1 1; 0 0 1 1; 0 0 1 1; 0 0 1 1; 0 0 1 1; 0 0 1 1; 0 0 1 1; 0 0 1 1; 0 0 1 1" fill="freeze" /><g transform="translate(0,0)"><g id="i2" transform="matrix(1,0,0,1,-15,362.562)"><ellipse ry="61" rx="258" cy="0" cx="0" fill="#d6d5d4" /></g></g></g></g></g></g><g transform="matrix(1,0,0,1,198.952,743.017)" id="i0"><g visibility="hidden" id="i3"><animate repeatCount="indefinite" begin="0s" calcMode="discrete" dur="7s" values="hidden; visible; visible" keyTimes="0; 0.071; 1" attributeName="visibility" /><g transform="translate(24.384,163.851)"><animateTransform repeatCount="indefinite" type="translate" attributeName="transform" dur="7s" begin="0s" calcMode="spline" values="24.384 163.851; 24.384 163.851; 27.884 165.851; 20.884 165.851; 24.384 163.851; 27.884 165.851; 20.884 165.851; 24.384 163.851; 27.884 165.851; 20.884 165.851; 24.384 163.851; 27.884 165.851; 20.884 165.851; 24.384 163.851; 27.884 165.851; 20.884 165.851; 24.384 163.851; 27.884 165.851; 20.884 165.851; 24.384 163.851; 27.884 165.851; 20.884 165.851; 24.384 163.851; 27.884 165.851; 20.884 165.851; 24.384 163.851" keyTimes="0; 0.071429; 0.119048; 0.161905; 0.2; 0.247619; 0.290477; 0.328572; 0.376191; 0.419048; 0.461905; 0.5; 0.542858; 0.595239; 0.633334; 0.676191; 0.709524; 0.757143; 0.8; 0.838096; 0.885715; 0.928572; 0.961905; 1; 1; 1" keySplines="0 0 1 1; 0.333 0 0.667 1; 0.333 0 0.667 1; 0.333 0 0.667 1; 0.333 0 0.667 1; 0.333 0 0.667 1; 0.222 0 0.725 1; 0.333 0 0.667 1; 0.333 0 0.667 1; 0.167 0 0.667 1; 0.333 0 0.667 1; 0.333 0 0.667 1; 0.167 0 0.667 1; 0.333 0 0.667 1; 0.333 0 0.667 1; 0.167 0 0.667 1; 0.333 0 0.667 1; 0.333 0 0.667 1; 0.167 0 0.667 1; 0.333 0 0.667 1; 0.333 0 0.667 1; 0.167 0 0.667 1; 0.333 0 0.667 1; 0.333 0 0.667 1; 0.167 0 0.667 1" fill="freeze" /><g transform="rotate(1.68)"><animateTransform repeatCount="indefinite" type="rotate" attributeName="transform" dur="7s" begin="0s" calcMode="spline" values="1.68; 1.68; 0; 1.68; 1.68; 0; 1.68; 1.68; 0; 1.68; 1.68; 0; 1.68; 1.68; 0; 1.68; 1.68; 0; 1.68; 1.68; 0; 1.68; 1.68; 0; 1.68; 1.68" keyTimes="0; 0.071429; 0.119048; 0.161905; 0.2; 0.247619; 0.290477; 0.328572; 0.376191; 0.419048; 0.461905; 0.5; 0.542858; 0.595239; 0.633334; 0.676191; 0.709524; 0.757143; 0.8; 0.838096; 0.885715; 0.928572; 0.961905; 1; 1; 1" keySplines="0 0 1 1; 0.333 0 0.667 1; 0.333 0 0.667 1; 0.167 0 0.667 1; 0.333 0 0.667 1; 0.333 0 0.667 1; 0.167 0 0.667 1; 0.333 0 0.667 1; 0.333 0 0.667 1; 0.167 0 0.667 1; 0.333 0 0.667 1; 0.333 0 0.667 1; 0.167 0 0.667 1; 0.333 0 0.667 1; 0.333 0 0.667 1; 0.167 0 0.667 1; 0.333 0 0.667 1; 0.333 0 0.667 1; 0.167 0 0.667 1; 0.333 0 0.667 1; 0.333 0 0.667 1; 0.167 0 0.667 1; 0.333 0 0.667 1; 0.333 0 0.667 1; 0.167 0 0.667 1" fill="freeze" /><g transform="scale(1,1) translate(-49.776,-79.799)"><g id="i4" transform="matrix(1,0,0,1,49.776,79.799)"><path fill="#141010" d="M46.276,74.166C37.096,69.803,29.207,60.386,20.696,43.631C14.773,31.969,8.669,16.865,3.043,-0.048C-4.687,-23.287,-12.858,-54.428,-15.369,-79.549C-19.752,-76.217,-23.883,-72.395,-27.66,-68.032C-41.761,-51.743,-49.526,-30.269,-49.526,-7.565C-49.526,8.375,-48.211,31.682,-36.839,49.966C-30.835,59.619,-22.656,67.043,-12.53,72.032C-2.406,77.02,9.766,79.549,23.65,79.549C25.52,79.549,27.454,79.503,29.398,79.413C36.318,79.093,43.064,77.819,49.526,75.71C49.526,75.71,46.276,74.166,46.276,74.166Z" /></g><g id="i5" transform="matrix(1,0,0,1,47.473,82.773)"><path fill="#a46a3f" d="M20.772,41.763C14.871,30.145,8.786,15.088,3.176,-1.779C-2.303,-18.252,-8.002,-38.698,-11.742,-58.133C-23.177,-45.894,-30.341,-28.408,-30.341,-8.981C-30.341,26.784,-22.278,58.133,22.835,58.133C24.396,58.133,26.008,58.095,27.659,58.019C28.558,57.978,29.451,57.908,30.341,57.824C27.177,53.467,24.024,48.164,20.772,41.763Z" /></g></g></g></g></g></g><g transform="matrix(1,0,0,1,198.952,743.017)" id="i0"><g visibility="hidden" id="i6"><animate repeatCount="indefinite" begin="0s" calcMode="discrete" dur="7s" values="hidden; visible; visible" keyTimes="0; 0.071; 1" attributeName="visibility" /><g transform="translate(277.384,163.851)"><animateTransform repeatCount="indefinite" type="translate" attributeName="transform" dur="7s" begin="0s" calcMode="spline" values="277.384 163.851; 277.384 163.851; 280.884 165.851; 273.884 165.851; 277.384 163.851; 280.884 165.851; 273.884 165.851; 277.384 163.851; 280.884 165.851; 273.884 165.851; 277.384 163.851; 280.884 165.851; 273.884 165.851; 277.384 163.851; 280.884 165.851; 273.884 165.851; 277.384 163.851; 280.884 165.851; 273.884 165.851; 277.384 163.851; 280.884 165.851; 273.884 165.851; 277.384 163.851; 280.884 165.851; 273.884 165.851; 277.384 163.851" keyTimes="0; 0.071429; 0.119048; 0.161905; 0.2; 0.247619; 0.290477; 0.328572; 0.376191; 0.419048; 0.461905; 0.5; 0.542858; 0.590477; 0.633334; 0.676191; 0.709524; 0.757143; 0.8; 0.838096; 0.885715; 0.928572; 0.961905; 1; 1; 1" keySplines="0 0 1 1; 0.333 0 0.667 1; 0.333 0 0.667 1; 0.333 0 0.667 1; 0.333 0 0.667 1; 0.333 0 0.667 1; 0.222 0 0.725 1; 0.333 0 0.667 1; 0.333 0 0.667 1; 0.167 0 0.667 1; 0.333 0 0.667 1; 0.333 0 0.667 1; 0.167 0 0.667 1; 0.333 0 0.667 1; 0.333 0 0.667 1; 0.167 0 0.667 1; 0.333 0 0.667 1; 0.333 0 0.667 1; 0.167 0 0.667 1; 0.333 0 0.667 1; 0.333 0 0.667 1; 0.167 0 0.667 1; 0.333 0 0.667 1; 0.333 0 0.667 1; 0.167 0 0.667 1" fill="freeze" /><g transform="rotate(1.68)"><animateTransform repeatCount="indefinite" type="rotate" attributeName="transform" dur="7s" begin="0s" calcMode="spline" values="1.68; 1.68; 0; 1.68; 1.68; 0; 1.68; 1.68; 0; 1.68; 1.68; 0; 1.68; 1.68; 0; 1.68; 1.68; 0; 1.68; 1.68; 0; 1.68; 1.68; 0; 1.68; 1.68" keyTimes="0; 0.071429; 0.119048; 0.161905; 0.2; 0.247619; 0.290477; 0.328572; 0.376191; 0.419048; 0.461905; 0.5; 0.542858; 0.590477; 0.633334; 0.676191; 0.709524; 0.757143; 0.8; 0.838096; 0.885715; 0.928572; 0.961905; 1; 1; 1" keySplines="0 0 1 1; 0.333 0 0.667 1; 0.333 0 0.667 1; 0.167 0 0.667 1; 0.333 0 0.667 1; 0.333 0 0.667 1; 0.167 0 0.667 1; 0.333 0 0.667 1; 0.333 0 0.667 1; 0.167 0 0.667 1; 0.333 0 0.667 1; 0.333 0 0.667 1; 0.167 0 0.667 1; 0.333 0 0.667 1; 0.333 0 0.667 1; 0.167 0 0.667 1; 0.333 0 0.667 1; 0.333 0 0.667 1; 0.167 0 0.667 1; 0.333 0 0.667 1; 0.333 0 0.667 1; 0.167 0 0.667 1; 0.333 0 0.667 1; 0.333 0 0.667 1; 0.167 0 0.667 1" fill="freeze" /><g transform="scale(1,1) translate(-48.914,-80.939)"><g id="i4" transform="matrix(1,0,0,1,48.913,80.94)"><path fill="#141010" d="M26.798,-66.891C22.13,-72.283,16.939,-76.88,11.367,-80.689C11.372,-68.388,10.052,-59.955,9.244,-55.964C5.868,-3.05,-23.739,48.791,-43.037,70.949C-43.037,70.949,-48.663,77.41,-48.663,77.41C-42.728,79.189,-36.566,80.262,-30.261,80.554C-28.317,80.644,-26.384,80.689,-24.513,80.689C-10.63,80.689,1.543,78.161,11.666,73.173C21.793,68.184,29.972,60.76,35.976,51.107C47.348,32.822,48.663,9.515,48.663,-6.425C48.663,-29.128,40.899,-50.602,26.798,-66.891Z" /></g><g id="i5" transform="matrix(1,0,0,1,49.197,82.673)"><path fill="#a46a3f" d="M11.734,-57.88C8.854,-12.213,-13.673,32.657,-32.144,58.187C-30.078,58.519,-27.981,58.745,-25.856,58.843C-24.204,58.919,-22.592,58.956,-21.032,58.956C24.081,58.956,32.144,27.608,32.144,-8.157C32.144,-28.476,24.303,-46.668,11.939,-58.956C11.868,-58.568,11.798,-58.204,11.734,-57.88Z" /></g></g></g></g></g></g><g transform="matrix(1,0,0,1,198.952,743.017)" visibility="hidden" id="i0"><animate repeatCount="indefinite" begin="0s" calcMode="discrete" dur="7s" values="hidden; visible; visible" keyTimes="0; 0.071; 1" attributeName="visibility" /><g id="i4" transform="matrix(1,0,0,1,152.209,121.956)"><path fill="#141010" d="M-42.841,121.653C-42.841,121.653,-21.841,121.653,-21.841,121.653C-21.841,121.653,18.159,121.653,18.159,121.653C18.159,121.653,39.159,121.653,39.159,121.653C39.159,121.653,49.159,121.653,49.159,121.653C49.159,121.653,77.909,121.653,77.909,121.653C77.909,121.653,87.467,121.653,87.467,121.653C87.467,121.653,93.743,114.447,93.743,114.447C113.042,92.289,142.65,40.446,146.027,-12.468C147.779,-21.129,151.96,-50.656,139.727,-95.396C139.727,-95.396,132.532,-121.705,132.532,-121.705C132.532,-121.705,108.936,-108.025,108.936,-108.025C76.819,-89.402,33.126,-87.014,-1.35,-87.014C-36.066,-87.014,-80.036,-89.437,-112.174,-108.33C-112.174,-108.33,-132.798,-120.454,-132.798,-120.454C-132.798,-120.454,-142.147,-98.434,-142.147,-98.434C-151.959,-75.323,-151.046,-53.206,-150.587,-47.375C-150.352,-20.811,-140.566,17.852,-131.401,45.407C-125.775,62.32,-119.671,77.424,-113.747,89.085C-105.237,105.84,-97.349,115.257,-88.169,119.62C-88.169,119.62,-83.89,121.653,-83.89,121.653C-83.89,121.653,-79.154,121.653,-79.154,121.653C-79.154,121.653,-76.841,121.653,-76.841,121.653C-76.841,121.653,-51.77,121.653,-51.77,121.653C-51.256,121.685,-50.703,121.705,-50.119,121.705" /></g><g id="i5" transform="matrix(1,0,0,1,152.448,127.195)"><path fill="#a46a3f" d="M48.919,95.414C48.919,95.414,77.669,95.414,77.669,95.414C94.936,75.591,122.419,26.914,124.919,-20.589C124.919,-20.589,132.03,-48.287,119.231,-95.096C82.929,-74.047,35.842,-71.253,-1.589,-71.253C-39.242,-71.253,-86.668,-74.074,-123.056,-95.466C-132.03,-74.329,-129.831,-53.586,-129.831,-53.586C-129.831,-10.919,-98.331,86.414,-79.393,95.414C-79.393,95.414,-77.081,95.414,-77.081,95.414C-77.081,95.414,-51.081,95.414,-51.081,95.414C-51.081,95.414,-50.809,95.466,-50.358,95.466C-48.124,95.466,-41.501,94.197,-41.931,79.06C-41.931,79.06,-41.081,2.414,-41.081,2.414C-41.081,2.414,-22.081,2.414,-22.081,2.414C-22.081,2.414,-22.081,95.414,-22.081,95.414C-22.081,95.414,17.919,95.414,17.919,95.414C17.919,95.414,17.919,1.414,17.919,1.414C17.919,1.414,36.919,1.414,36.919,1.414C36.919,1.414,36.919,82.414,36.919,82.414C36.919,92.787,39.169,95.414,48.919,95.414Z" /></g></g><g transform="matrix(1,0,0,1,198.952,743.017)" id="i0"><g id="i7"><g transform="translate(148.844,34.89)"><g transform="rotate(0)"><animateTransform repeatCount="indefinite" type="rotate" attributeName="transform" dur="7s" begin="0s" calcMode="spline" values="0; 0; -9.162; 6.945; -9.162; 0; -9.162; -9.162; 6.945; 6.945; -9.162; 0; 6.945" keyTimes="0; 0.071429; 0.166666; 0.238095; 0.290476; 0.338095; 0.47619; 0.514286; 0.633333; 0.752381; 0.804762; 1; 1" keySplines="0 0 1 1; 0.333 0 0.667 1; 0.333 0 0.667 1; 0.333 0 0.667 1; 0.333 0 0.667 1; 0.333 0 0.667 1; 0.333 0 0.667 1; 0.333 0 0.667 1; 0.333 0 0.667 1; 0.333 0 0.667 1; 0.333 0 0.667 1; 0.333 0 0.667 1" fill="freeze" /><g transform="scale(1,1) translate(-213.589,-388.587)"><g id="i8" transform="matrix(1,0,0,1,213.589,211.586)"><path fill="#141010" d="M153.854,-211.337C143.268,-211.337,133.337,-206.755,126.61,-198.77C114.954,-184.933,98.166,-163.617,84.375,-140.643C82.764,-137.961,79.628,-134.4,77.037,-132.107C75.726,-130.948,74.128,-130.16,72.41,-129.839C72.158,-129.792,71.91,-129.744,71.664,-129.695C69.686,-129.306,67.646,-129.597,65.813,-130.434C62.703,-131.855,59.561,-133.173,56.41,-134.381C56.41,-134.381,56.298,-134.423,56.298,-134.423C55.211,-134.839,54.062,-135.263,52.883,-135.684C52.883,-135.684,52.545,-135.804,52.545,-135.804C51.339,-136.232,50.206,-136.619,49.084,-136.988C33.125,-142.235,16.582,-144.896,-0.089,-144.896C-10.343,-144.896,-31.299,-141.281,-44.549,-138.197C-44.549,-138.197,-49.309,-136.968,-49.309,-136.968C-55.453,-135.021,-61.041,-133.096,-66.872,-130.493C-68.638,-129.704,-70.602,-129.468,-72.502,-129.824C-72.52,-129.827,-72.537,-129.83,-72.554,-129.834C-74.287,-130.156,-75.899,-130.941,-77.219,-132.109C-79.811,-134.403,-82.943,-137.961,-84.553,-140.643C-97.988,-163.024,-114.291,-183.836,-125.601,-197.354C-132.566,-205.679,-142.878,-210.454,-153.891,-210.454C-166.923,-210.454,-178.653,-203.936,-185.268,-193.02C-198.833,-170.635,-213.339,-131.697,-205.418,-73.321C-200.975,-40.577,-191.632,-4.652,-180.055,24.611C-179.422,26.212,-179.231,27.944,-179.492,29.645C-181.407,42.126,-182.375,54.846,-182.375,67.57C-182.375,116.762,-164.971,143.805,-164.698,144.309C-151.577,168.654,-130.643,186.39,-102.264,197.148C-76.381,206.961,-44.869,211.337,-0.089,211.337C44.709,211.337,76.232,206.955,102.121,197.133C136.333,184.152,159.723,161.028,171.639,128.402C171.639,128.402,171.716,128.189,171.716,128.189C171.716,128.189,171.729,128.152,171.729,128.152C172.312,126.547,172.896,124.814,173.503,122.895C173.503,122.895,173.6,122.598,173.6,122.598C173.726,122.199,173.853,121.802,173.975,121.398C174.198,120.668,174.411,119.93,174.623,119.189C174.782,118.636,174.94,118.079,175.094,117.517C175.293,116.789,175.487,116.063,175.675,115.33C175.822,114.761,175.965,114.179,176.107,113.597C176.107,113.597,176.131,113.494,176.131,113.494C176.131,113.494,176.217,113.14,176.217,113.14C176.362,112.551,176.505,111.964,176.642,111.366C176.842,110.49,177.033,109.595,177.222,108.699C177.423,107.741,177.616,106.778,177.802,105.807C177.802,105.807,177.815,105.741,177.815,105.741C177.96,104.981,178.105,104.222,178.242,103.45C178.349,102.842,178.45,102.229,178.55,101.618C178.55,101.618,178.576,101.468,178.576,101.468C178.704,100.69,178.83,99.904,178.949,99.11C179.047,98.46,179.141,97.81,179.233,97.156C179.353,96.294,179.468,95.412,179.579,94.527C179.579,94.527,179.631,94.106,179.631,94.106C179.688,93.666,179.742,93.225,179.793,92.778C179.97,91.251,180.119,89.832,180.248,88.444C180.27,88.204,180.291,87.958,180.311,87.715C180.311,87.715,180.326,87.525,180.326,87.525C180.441,86.224,180.537,85.013,180.621,83.827C180.649,83.413,180.675,82.996,180.701,82.579C180.701,82.579,180.725,82.184,180.725,82.184C180.79,81.149,180.848,80.109,180.899,79.059C180.927,78.485,180.954,77.906,180.977,77.324C181.022,76.232,181.057,75.125,181.086,74.012C181.086,74.012,181.097,73.58,181.097,73.58C181.108,73.218,181.119,72.855,181.125,72.489C181.162,70.715,181.178,69.111,181.178,67.582C181.178,67.582,181.178,67.405,181.178,67.405C181.178,67.405,181.177,67.337,181.177,67.337C181.175,65.584,181.154,63.792,181.115,62.002C181.106,61.618,181.094,61.236,181.081,60.853C181.081,60.853,181.063,60.363,181.063,60.363C181.026,59.053,180.987,57.74,180.93,56.433C180.911,56.013,180.888,55.597,180.865,55.182C180.865,55.182,180.834,54.64,180.834,54.64C180.77,53.383,180.703,52.124,180.621,50.871C180.592,50.457,180.563,50.053,180.532,49.648C180.532,49.648,180.493,49.13,180.493,49.13C180.399,47.861,180.302,46.588,180.19,45.322C180.155,44.934,180.118,44.553,180.081,44.17C180.081,44.17,180.034,43.692,180.034,43.692C179.91,42.39,179.78,41.093,179.636,39.801C179.594,39.424,179.548,39.049,179.504,38.673C179.504,38.673,179.457,38.282,179.457,38.282C179.302,36.957,179.138,35.628,178.961,34.305C178.912,33.933,178.859,33.562,178.806,33.191C178.806,33.191,178.767,32.91,178.767,32.91C178.696,32.402,178.625,31.908,178.555,31.422C178.308,29.725,178.519,28,179.16,26.408C191.081,-3.198,200.688,-39.79,205.238,-73.321C213.339,-133.023,198.097,-172.427,183.883,-194.97C177.422,-205.218,166.196,-211.337,153.854,-211.337Z" /></g><g id="i9" transform="matrix(1,0,0,1,213.5,244.523)"><path fill="#a46a3f" d="M161.267,34.362C161.267,140.664,89.065,158.116,-0.001,158.116C-89.066,158.116,-161.268,140.664,-161.268,34.362C-161.268,-71.941,-89.066,-158.116,-0.001,-158.116C89.065,-158.116,161.267,-71.941,161.267,34.362Z" /></g><g id="i10" transform="matrix(1,0,0,1,103.637,175.6)"><path fill="#a46a3f" d="M67.352,-82.762C58.514,-79.961,49.977,-76.282,41.804,-71.818C39.989,-73.027,36.676,-74.072,31.266,-74.883C22.967,-76.126,12.561,-87.466,8.251,-94.646C-4.493,-115.876,-20.062,-135.758,-30.988,-148.817C-38.218,-157.459,-52.418,-156.514,-58.212,-146.953C-69.59,-128.176,-82.881,-93.61,-75.648,-40.307C-70.982,-5.922,-60.817,31.532,-48.413,60.469C-51.033,74.236,-52.424,88.559,-52.424,103.272C-52.424,124.773,-49.468,142.636,-44.019,157.458C27.449,147.694,82.881,77.524,82.881,-7.604C82.881,-34.653,77.28,-60.19,67.352,-82.762Z" /></g><g id="i11" transform="matrix(1,0,0,1,321.367,175.184)"><path fill="#a46a3f" d="M56.774,-148.185C51.309,-156.853,38.365,-157.659,31.715,-149.766C20.752,-136.751,4.526,-116.214,-8.669,-94.231C-12.98,-87.051,-23.386,-75.709,-31.684,-74.466C-37.568,-73.584,-40.973,-72.425,-42.665,-71.08C-50.57,-75.443,-58.821,-79.065,-67.355,-81.871C-77.154,-59.415,-82.679,-34.048,-82.679,-7.188C-82.679,77.32,-28.052,147.096,42.661,157.659C48.058,142.881,50.987,125.093,50.987,103.701C50.987,89.569,49.706,75.795,47.283,62.531C60.01,33.377,70.474,-4.852,75.229,-39.892C82.679,-94.794,68.355,-129.817,56.774,-148.185Z" /></g><g id="i12" transform="matrix(1,0,0,1,58.87,139.492)"><path fill="#ffffff" d="M-20.065,-98.221C-29.177,-78.062,-36.721,-47.244,-30.88,-4.2C-26.126,30.84,-15.661,69.068,-2.935,98.221C3.344,63.85,17.316,32.911,36.721,8.098C21.862,-37.087,1.043,-74.968,-20.065,-98.221Z" /></g><g id="i13" transform="matrix(1,0,0,1,368.13,138.952)"><path fill="#ffffff" d="M20.065,-98.221C29.176,-78.062,36.721,-47.244,30.879,-4.2C26.125,30.84,15.661,69.068,2.934,98.221C-3.344,63.85,-17.317,32.911,-36.721,8.098C-21.863,-37.087,-1.043,-74.968,20.065,-98.221Z" /></g><g id="i14" transform="matrix(1,0,0,1,123.923,235.452)"><path fill="#ffffff" d="M28.334,0C28.334,15.648,15.649,28.333,0.001,28.333C-15.647,28.333,-28.334,15.648,-28.334,0C-28.334,-15.648,-15.647,-28.333,0.001,-28.333C15.649,-28.333,28.334,-15.648,28.334,0Z" /></g><g id="i15" transform="matrix(1,0,0,1,303.824,235.452)"><path fill="#ffffff" d="M28.333,0C28.333,15.648,15.648,28.333,0,28.333C-15.648,28.333,-28.333,15.648,-28.333,0C-28.333,-15.648,-15.648,-28.333,0,-28.333C15.648,-28.333,28.333,-15.648,28.333,0Z" /></g><g id="i16" transform="matrix(1,0,0,1,123.924,227.681)"><path fill="#0d0a0b" d="M16.095,0C16.095,8.889,8.889,16.095,0,16.095C-8.888,16.095,-16.095,8.889,-16.095,0C-16.095,-8.889,-8.888,-16.095,0,-16.095C8.889,-16.095,16.095,-8.889,16.095,0Z" /></g><g id="i4" transform="matrix(1,0,0,1,299.964,227.681)"><path fill="#0d0a0b" d="M16.095,0C16.095,8.889,8.889,16.095,-0.001,16.095C-8.889,16.095,-16.095,8.889,-16.095,0C-16.095,-8.889,-8.889,-16.095,-0.001,-16.095C8.889,-16.095,16.095,-8.889,16.095,0Z" /></g><g id="i5" transform="matrix(1,0,0,1,213.5,322.466)"><path fill="#000000" d="M43,-33.207C43,-46.966,23.748,-53.84,0,-53.84C-23.748,-53.84,-43,-46.966,-43,-33.207C-43,-20.902,-27.598,-2.331,-7.356,1.459C-8.981,7.022,-9.981,14.548,-9.981,22.84C-9.981,39.961,-5.728,53.84,-0.481,53.84C4.766,53.84,9.019,39.961,9.019,22.84C9.019,14.633,8.04,7.175,6.444,1.629C27.135,-1.762,43,-20.717,43,-33.207Z" /></g></g></g></g></g></g></svg>